<mxfile host="app.diagrams.net" modified="2023-03-08T06:10:11.208Z" agent="5.0 (Windows NT 10.0; Win64; x64) AppleWebKit/537.36 (KHTML, like Gecko) Chrome/110.0.0.0 Safari/537.36" etag="e9ieHdty7Keo5AJGjdYQ" version="21.0.2" type="github">
  <diagram name="Page-1" id="sDcosQPgiZDwW8YW9xRA">
    <mxGraphModel dx="1334" dy="553" grid="1" gridSize="10" guides="1" tooltips="1" connect="1" arrows="1" fold="1" page="0" pageScale="1" pageWidth="850" pageHeight="1100" math="0" shadow="0">
      <root>
        <mxCell id="0" />
        <mxCell id="1" parent="0" />
        <mxCell id="5bl7u4Xtsho082jTFq0C-17" value="" style="rounded=0;whiteSpace=wrap;html=1;" vertex="1" parent="1">
          <mxGeometry x="-370" y="270" width="410" height="570" as="geometry" />
        </mxCell>
        <mxCell id="5bl7u4Xtsho082jTFq0C-14" style="edgeStyle=orthogonalEdgeStyle;rounded=0;orthogonalLoop=1;jettySize=auto;html=1;" edge="1" parent="1" source="5bl7u4Xtsho082jTFq0C-1" target="5bl7u4Xtsho082jTFq0C-2">
          <mxGeometry relative="1" as="geometry" />
        </mxCell>
        <mxCell id="5bl7u4Xtsho082jTFq0C-1" value="" style="sketch=0;pointerEvents=1;shadow=0;dashed=0;html=1;strokeColor=none;fillColor=#005F4B;labelPosition=center;verticalLabelPosition=bottom;verticalAlign=top;align=center;outlineConnect=0;shape=mxgraph.veeam2.tag;" vertex="1" parent="1">
          <mxGeometry x="-215" y="570" width="28.000000000000004" height="28.000000000000004" as="geometry" />
        </mxCell>
        <mxCell id="5bl7u4Xtsho082jTFq0C-16" style="edgeStyle=orthogonalEdgeStyle;rounded=0;orthogonalLoop=1;jettySize=auto;html=1;entryX=0.5;entryY=0;entryDx=0;entryDy=0;entryPerimeter=0;" edge="1" parent="1" source="5bl7u4Xtsho082jTFq0C-2" target="5bl7u4Xtsho082jTFq0C-5">
          <mxGeometry relative="1" as="geometry" />
        </mxCell>
        <mxCell id="5bl7u4Xtsho082jTFq0C-12" style="edgeStyle=orthogonalEdgeStyle;rounded=0;orthogonalLoop=1;jettySize=auto;html=1;" edge="1" parent="1" source="5bl7u4Xtsho082jTFq0C-4" target="5bl7u4Xtsho082jTFq0C-1">
          <mxGeometry relative="1" as="geometry" />
        </mxCell>
        <mxCell id="5bl7u4Xtsho082jTFq0C-4" value="AWS Single Sign-On" style="sketch=0;outlineConnect=0;fontColor=#232F3E;gradientColor=none;strokeColor=#ffffff;fillColor=#232F3E;dashed=0;verticalLabelPosition=middle;verticalAlign=bottom;align=center;html=1;whiteSpace=wrap;fontSize=10;fontStyle=1;spacing=3;shape=mxgraph.aws4.productIcon;prIcon=mxgraph.aws4.single_sign_on;" vertex="1" parent="1">
          <mxGeometry x="-240" y="330" width="80" height="110" as="geometry" />
        </mxCell>
        <mxCell id="5bl7u4Xtsho082jTFq0C-20" style="edgeStyle=orthogonalEdgeStyle;rounded=0;orthogonalLoop=1;jettySize=auto;html=1;exitX=1;exitY=0.3333333333333333;exitDx=0;exitDy=0;exitPerimeter=0;" edge="1" parent="1" source="5bl7u4Xtsho082jTFq0C-5" target="5bl7u4Xtsho082jTFq0C-19">
          <mxGeometry relative="1" as="geometry" />
        </mxCell>
        <mxCell id="5bl7u4Xtsho082jTFq0C-5" value="Bastion User" style="shape=umlActor;verticalLabelPosition=bottom;verticalAlign=top;html=1;outlineConnect=0;" vertex="1" parent="1">
          <mxGeometry x="-217" y="950" width="30" height="60" as="geometry" />
        </mxCell>
        <mxCell id="5bl7u4Xtsho082jTFq0C-15" style="edgeStyle=orthogonalEdgeStyle;rounded=0;orthogonalLoop=1;jettySize=auto;html=1;" edge="1" parent="1" source="5bl7u4Xtsho082jTFq0C-7" target="5bl7u4Xtsho082jTFq0C-2">
          <mxGeometry relative="1" as="geometry" />
        </mxCell>
        <mxCell id="5bl7u4Xtsho082jTFq0C-7" value="Permission set" style="sketch=0;outlineConnect=0;fontColor=#232F3E;gradientColor=none;fillColor=#BF0816;strokeColor=none;dashed=0;verticalLabelPosition=bottom;verticalAlign=top;align=center;html=1;fontSize=12;fontStyle=0;aspect=fixed;pointerEvents=1;shape=mxgraph.aws4.permissions;" vertex="1" parent="1">
          <mxGeometry x="-60" y="598" width="82" height="103.16" as="geometry" />
        </mxCell>
        <mxCell id="5bl7u4Xtsho082jTFq0C-9" style="edgeStyle=orthogonalEdgeStyle;rounded=0;orthogonalLoop=1;jettySize=auto;html=1;" edge="1" parent="1" source="5bl7u4Xtsho082jTFq0C-8" target="5bl7u4Xtsho082jTFq0C-4">
          <mxGeometry relative="1" as="geometry">
            <Array as="points">
              <mxPoint x="-202" y="280" />
              <mxPoint x="-202" y="280" />
            </Array>
          </mxGeometry>
        </mxCell>
        <mxCell id="5bl7u4Xtsho082jTFq0C-8" value="ADI Active Directory" style="sketch=0;pointerEvents=1;shadow=0;dashed=0;html=1;strokeColor=none;fillColor=#505050;labelPosition=center;verticalLabelPosition=bottom;verticalAlign=top;outlineConnect=0;align=center;shape=mxgraph.office.security.active_directory;" vertex="1" parent="1">
          <mxGeometry x="-231.25" y="90" width="58.5" height="50" as="geometry" />
        </mxCell>
        <mxCell id="5bl7u4Xtsho082jTFq0C-10" value="SAML Integration" style="text;html=1;align=center;verticalAlign=middle;resizable=0;points=[];autosize=1;strokeColor=none;fillColor=none;" vertex="1" parent="1">
          <mxGeometry x="-187" y="220" width="120" height="30" as="geometry" />
        </mxCell>
        <mxCell id="5bl7u4Xtsho082jTFq0C-11" value="Attribute based Access Control" style="text;html=1;align=center;verticalAlign=middle;resizable=0;points=[];autosize=1;strokeColor=none;fillColor=none;" vertex="1" parent="1">
          <mxGeometry x="-187" y="180" width="190" height="30" as="geometry" />
        </mxCell>
        <mxCell id="5bl7u4Xtsho082jTFq0C-18" value="IAM Identity Access Control" style="text;html=1;strokeColor=none;fillColor=none;align=center;verticalAlign=middle;whiteSpace=wrap;rounded=0;" vertex="1" parent="1">
          <mxGeometry x="-172.75" y="280" width="170" height="30" as="geometry" />
        </mxCell>
        <mxCell id="5bl7u4Xtsho082jTFq0C-2" value="SAML Assumed IAM Role" style="sketch=0;outlineConnect=0;fontColor=#232F3E;gradientColor=none;fillColor=#BF0816;strokeColor=none;dashed=0;verticalLabelPosition=bottom;verticalAlign=top;align=center;html=1;fontSize=12;fontStyle=0;aspect=fixed;pointerEvents=1;shape=mxgraph.aws4.role;" vertex="1" parent="1">
          <mxGeometry x="-240" y="720" width="78" height="44" as="geometry" />
        </mxCell>
        <mxCell id="5bl7u4Xtsho082jTFq0C-13" value="ABAC - Principal Tags Mapping" style="text;html=1;align=center;verticalAlign=middle;resizable=0;points=[];autosize=1;strokeColor=none;fillColor=none;" vertex="1" parent="1">
          <mxGeometry x="-200" y="480" width="190" height="30" as="geometry" />
        </mxCell>
        <mxCell id="5bl7u4Xtsho082jTFq0C-19" value="AWS Console" style="sketch=0;points=[[0,0,0],[0.25,0,0],[0.5,0,0],[0.75,0,0],[1,0,0],[0,1,0],[0.25,1,0],[0.5,1,0],[0.75,1,0],[1,1,0],[0,0.25,0],[0,0.5,0],[0,0.75,0],[1,0.25,0],[1,0.5,0],[1,0.75,0]];points=[[0,0,0],[0.25,0,0],[0.5,0,0],[0.75,0,0],[1,0,0],[0,1,0],[0.25,1,0],[0.5,1,0],[0.75,1,0],[1,1,0],[0,0.25,0],[0,0.5,0],[0,0.75,0],[1,0.25,0],[1,0.5,0],[1,0.75,0]];outlineConnect=0;fontColor=#232F3E;gradientColor=#F34482;gradientDirection=north;fillColor=#BC1356;strokeColor=#ffffff;dashed=0;verticalLabelPosition=bottom;verticalAlign=top;align=center;html=1;fontSize=12;fontStyle=0;aspect=fixed;shape=mxgraph.aws4.resourceIcon;resIcon=mxgraph.aws4.management_console;" vertex="1" parent="1">
          <mxGeometry x="140" y="932" width="78" height="78" as="geometry" />
        </mxCell>
        <mxCell id="5bl7u4Xtsho082jTFq0C-21" value="AWS Systems Manager" style="sketch=0;points=[[0,0,0],[0.25,0,0],[0.5,0,0],[0.75,0,0],[1,0,0],[0,1,0],[0.25,1,0],[0.5,1,0],[0.75,1,0],[1,1,0],[0,0.25,0],[0,0.5,0],[0,0.75,0],[1,0.25,0],[1,0.5,0],[1,0.75,0]];points=[[0,0,0],[0.25,0,0],[0.5,0,0],[0.75,0,0],[1,0,0],[0,1,0],[0.25,1,0],[0.5,1,0],[0.75,1,0],[1,1,0],[0,0.25,0],[0,0.5,0],[0,0.75,0],[1,0.25,0],[1,0.5,0],[1,0.75,0]];outlineConnect=0;fontColor=#232F3E;gradientColor=#F34482;gradientDirection=north;fillColor=#BC1356;strokeColor=#ffffff;dashed=0;verticalLabelPosition=bottom;verticalAlign=top;align=center;html=1;fontSize=12;fontStyle=0;aspect=fixed;shape=mxgraph.aws4.resourceIcon;resIcon=mxgraph.aws4.systems_manager;" vertex="1" parent="1">
          <mxGeometry x="450" y="932" width="78" height="78" as="geometry" />
        </mxCell>
        <mxCell id="5bl7u4Xtsho082jTFq0C-22" value="" style="rounded=0;whiteSpace=wrap;html=1;" vertex="1" parent="1">
          <mxGeometry x="299" y="560" width="380" height="320" as="geometry" />
        </mxCell>
        <mxCell id="5bl7u4Xtsho082jTFq0C-23" value="VPC" style="text;html=1;strokeColor=none;fillColor=none;align=center;verticalAlign=middle;whiteSpace=wrap;rounded=0;" vertex="1" parent="1">
          <mxGeometry x="310" y="570" width="60" height="30" as="geometry" />
        </mxCell>
        <mxCell id="5bl7u4Xtsho082jTFq0C-24" value="Bastion Host" style="sketch=0;points=[[0,0,0],[0.25,0,0],[0.5,0,0],[0.75,0,0],[1,0,0],[0,1,0],[0.25,1,0],[0.5,1,0],[0.75,1,0],[1,1,0],[0,0.25,0],[0,0.5,0],[0,0.75,0],[1,0.25,0],[1,0.5,0],[1,0.75,0]];outlineConnect=0;fontColor=#232F3E;gradientColor=#F78E04;gradientDirection=north;fillColor=#D05C17;strokeColor=#ffffff;dashed=0;verticalLabelPosition=bottom;verticalAlign=top;align=center;html=1;fontSize=12;fontStyle=0;aspect=fixed;shape=mxgraph.aws4.resourceIcon;resIcon=mxgraph.aws4.ec2;" vertex="1" parent="1">
          <mxGeometry x="450" y="681" width="78" height="78" as="geometry" />
        </mxCell>
      </root>
    </mxGraphModel>
  </diagram>
</mxfile>
